# xmcd
#
# Track frame offsets:
#	150
#	29154
#	41697
#	60484
#	74581
#	86423
#	97650
#	109039
#	126496
#	138220
#	156039
#	168232
#	182460
#	198432
#	210423
#	225112
#	238366
#	252048
#	264096
#	277950
#
# Disc length: 3896 seconds
#
# Revision: 1
# Processed by: cddbd v1.5.2PL0 Copyright (c) Steve Scherf et al.
# Submitted via: audiograbber 1.83.01
#
DISCID=070f3614
DTITLE=John Lee Hooker - JOHN LEE HOOKER - Blue Collection [CD 1)
DYEAR=1900
DGENRE=Blues
TTITLE0=Call it the night
TTITLE1=Huckle up baby
TTITLE2=I feel good
TTITLE3=Going home
TTITLE4=Howlin' Wolf
TTITLE5=I ain't got nobody
TTITLE6=Misbelieving baby
TTITLE7=Lonely boy boogie
TTITLE8=Little boy blue
TTITLE9=Bottle of wine
TTITLE10=Burning hell
TTITLE11=Catfish
TTITLE12=Good business
TTITLE13=Let your daddy ride
TTITLE14=Mercy blues
TTITLE15=Momma poppa boogie
TTITLE16=Bluebird
TTITLE17=Crawling king snake
TTITLE18=I don't want your money
TTITLE19=Blues for big town
EXTD=
EXTT0=
EXTT1=
EXTT2=
EXTT3=
EXTT4=
EXTT5=
EXTT6=
EXTT7=
EXTT8=
EXTT9=
EXTT10=
EXTT11=
EXTT12=
EXTT13=
EXTT14=
EXTT15=
EXTT16=
EXTT17=
EXTT18=
EXTT19=
PLAYORDER=
